{"asset":{"version":"2.0","generator":"THREE.GLTFExporter"},"scenes":[{"nodes":[0],"name":"AuxScene"}],"scene":0,"nodes":[{"mesh":0}],"bufferViews":[{"buffer":0,"byteOffset":0,"byteLength":57960,"target":34962,"byteStride":12},{"buffer":0,"byteOffset":57960,"byteLength":57960,"target":34962,"byteStride":12}],"buffers":[{"byteLength":115920,"uri":"data:application/octet-stream;base64,"}],"accessors":[{"bufferView":0,"componentType":5126,"count":4830,"max":[100.81192016601562,3.5959699153900146,100.61190795898438],"min":[-100.78809356689453,0.19596900045871735,-100.98809814453125],"type":"VEC3"},{"bufferView":1,"componentType":5126,"count":4830,"max":[0.9918184876441956,1,0.9980053901672363],"min":[-0.9805783629417419,0.035042788833379745,-0.9733285307884216],"type":"VEC3"}],"materials":[{"pbrMetallicRoughness":{"baseColorFactor":[0.5019607843137255,0.5019607843137255,0.5019607843137255,1],"metallicFactor":0,"roughnessFactor":1}}],"meshes":[{"primitives":[{"mode":4,"attributes":{"POSITION":0,"NORMAL":1},"material":0}]}]}